<svg width="367.6" height="399.147" viewBox="0 0 275.7 299.36" class="displayed_equation" xmlns="http://www.w3.org/2000/svg">
  <defs>
    <clipPath id="svg202149063525tikz_00006a">
      <path d="M 131 15.730469 L 146 15.730469 L 146 25 L 131 25 Z M 131 15.730469" />
    </clipPath>
    <clipPath id="svg202149063525tikz_00006b">
      <path d="M 135 94 L 141 94 L 141 283.625 L 135 283.625 Z M 135 94" />
    </clipPath>
    <clipPath id="svg202149063525tikz_00006c">
      <path d="M 131 89 L 146 89 L 146 283.625 L 131 283.625 Z M 131 89" />
    </clipPath>
    <clipPath id="svg202149063525tikz_00006d">
      <path d="M 136 94 L 141 94 L 141 283.625 L 136 283.625 Z M 136 94" />
    </clipPath>
    <clipPath id="svg202149063525tikz_00006e">
      <path d="M 136 94 L 140 94 L 140 283.625 L 136 283.625 Z M 136 94" />
    </clipPath>
    <clipPath id="svg202149063525tikz_00006f">
      <path d="M 136 94 L 138 94 L 138 283.625 L 136 283.625 Z M 136 94" />
    </clipPath>
    <clipPath id="svg202149063525tikz_00006g">
      <path d="M 15.734375 118 L 259.972656 118 L 259.972656 235 L 15.734375 235 Z M 15.734375 118" />
    </clipPath>
  </defs>
  <path d="M 1068.085938 1271.1 C 1068.085938 1345.201563 1207.578125 1405.31875 1379.648438 1405.31875 C 1551.679688 1405.31875 1691.210938 1345.201563 1691.210938 1271.1" transform="matrix(.1 0 0 -.1 0 299.36)" fill="none" stroke-width="6.391" stroke="#000" stroke-miterlimit="10" />
  <path d="M 1259.804688 1277.50625 C 1259.804688 1305.748438 1314.140625 1328.6 1381.210938 1328.6 C 1448.28125 1328.6 1498.828125 1305.748438 1498.828125 1277.50625" transform="matrix(.1 0 0 -.1 0 299.36)" fill="none" stroke-width="6.391" stroke="#000" stroke-miterlimit="10" />
  <path d="M 135.730469 95.039063 L 140.902344 95.039063 L 140.902344 17.925781 L 135.730469 17.925781 Z M 135.730469 95.039063" fill="#636160" />
  <path d="M 1357.304688 2043.209375 L 1357.304688 2814.342188 L 1409.023438 2814.342188 L 1409.023438 2043.209375" transform="matrix(.1 0 0 -.1 0 299.36)" fill="none" stroke-width="3.123" stroke="#000" stroke-miterlimit="10" />
  <path d="M 136.046875 95.039063 L 140.136719 95.039063 L 140.136719 18.230469 L 136.046875 18.230469 Z M 136.046875 95.039063" fill="#8e8e8e" />
  <path d="M 136.046875 95.039063 L 139.433594 95.039063 L 139.433594 18.230469 L 136.046875 18.230469 Z M 136.046875 95.039063" fill="#bfbfbf" />
  <path d="M 136.496094 95.039063 L 137.835938 95.039063 L 137.835938 18.230469 L 136.496094 18.230469 Z M 136.496094 95.039063" fill="#d8d8d8" />
  <path d="M 135.730469 17.925781 C 135.730469 16.90625 136.886719 16.082031 138.316406 16.082031 C 139.746094 16.082031 140.902344 16.90625 140.902344 17.925781 C 140.902344 18.941406 139.746094 19.769531 138.316406 19.769531 C 136.886719 19.769531 135.730469 18.941406 135.730469 17.925781" fill="#444" />
  <g clip-path="url(#svg202149063525tikz_00006a)">
    <path d="M 1409.023438 2814.342188 C 1409.023438 2824.5375 1397.460938 2832.779688 1383.164063 2832.779688 C 1368.867188 2832.779688 1357.304688 2824.5375 1357.304688 2814.342188 C 1357.304688 2804.185938 1368.867188 2795.904688 1383.164063 2795.904688 C 1397.460938 2795.904688 1409.023438 2804.185938 1409.023438 2814.342188 Z M 1409.023438 2814.342188" transform="matrix(.1 0 0 -.1 0 299.36)" fill="none" stroke-width="3.123" stroke="#000" stroke-miterlimit="10" />
  </g>
  <g clip-path="url(#svg202149063525tikz_00006b)">
    <path d="M 135.730469 281.429688 C 135.730469 282.449219 136.886719 283.273438 138.316406 283.273438 C 139.746094 283.273438 140.902344 282.449219 140.902344 281.429688 L 140.902344 94.628906 L 135.730469 94.628906 Z M 135.730469 281.429688" fill="#636160" />
  </g>
  <g clip-path="url(#svg202149063525tikz_00006c)">
    <path d="M 1357.304688 2051.373438 L 1357.304688 179.303125 C 1357.304688 169.107813 1368.867188 160.865625 1383.164063 160.865625 C 1397.460938 160.865625 1409.023438 169.107813 1409.023438 179.303125 L 1409.023438 2051.373438" transform="matrix(.1 0 0 -.1 0 299.36)" fill="none" stroke-width="3.123" stroke="#000" stroke-miterlimit="10" />
  </g>
  <g clip-path="url(#svg202149063525tikz_00006d)">
    <path d="M 136.046875 94.527344 L 140.136719 94.527344 L 140.136719 282.539063 C 139.933594 282.683594 139.695313 282.800781 139.433594 282.890625 C 139.09375 283.007813 138.714844 283.070313 138.316406 283.070313 C 138.152344 283.070313 137.992188 283.058594 137.835938 283.035156 C 137.316406 282.96875 136.855469 282.789063 136.496094 282.539063 C 136.316406 282.414063 136.167969 282.21875 136.046875 282.0625 Z M 136.046875 94.527344" fill="#8e8e8e" />
  </g>
  <g clip-path="url(#svg202149063525tikz_00006e)">
    <path d="M 136.046875 94.527344 L 139.433594 94.527344 L 139.433594 282.890625 C 139.09375 283.007813 138.714844 283.070313 138.316406 283.070313 C 138.152344 283.070313 137.992188 283.058594 137.835938 283.035156 C 137.316406 282.96875 136.855469 282.789063 136.496094 282.539063 C 136.316406 282.414063 136.167969 282.21875 136.046875 282.0625 Z M 136.046875 94.527344" fill="#bfbfbf" />
  </g>
  <g clip-path="url(#svg202149063525tikz_00006f)">
    <path d="M 136.496094 94.527344 L 137.835938 94.527344 L 137.835938 283.035156 C 137.316406 282.96875 136.855469 282.789063 136.496094 282.539063 Z M 136.496094 94.527344" fill="#d8d8d8" />
  </g>
  <path d="M 1409.375 1518.639063 C 1782.148438 1513.6 2076.835938 1399.771875 2076.835938 1260.045313 C 2076.835938 1117.154688 1764.960938 1001.334375 1380.273438 1001.334375 C 995.546875 1001.334375 683.671875 1117.154688 683.671875 1260.045313 C 683.671875 1399.5375 985.9375 1513.209375 1357.851563 1518.6" transform="matrix(.1 0 0 -.1 0 299.36)" fill="none" stroke-width="6.391" stroke="#000" stroke-miterlimit="10" />
  <g clip-path="url(#svg202149063525tikz_00006g)">
    <path d="M 1409.375 1716.607813 C 2093.007813 1712.310938 2596.523438 1494.38125 2596.523438 1226.139063 C 2596.523438 955.240625 2108.75 735.63125 1415.585938 735.63125 C 722.460938 735.63125 160.546875 955.240625 160.546875 1226.139063 C 160.546875 1492.81875 678.203125 1709.771875 1356.328125 1716.490625" transform="matrix(.1 0 0 -.1 0 299.36)" fill="none" stroke-width="6.391" stroke="#000" stroke-miterlimit="10" />
  </g>
  <path d="M207.824219 215.738281L207.511719 218.292969 209.128906 220.289063 203.082031 219.5625zM178.886719 191.824219L178.523438 194.371094 180.109375 196.394531 174.078125 195.5625zM161.398438 177.894531L161.570313 180.460938 163.53125 182.117188 157.460938 182.539063zM148.449219 171.304688L148.617188 173.871094 150.574219 175.535156 144.503906 175.9375zM127.652344 171.546875L127.679688 168.976563 125.851563 167.171875 131.9375 167.222656zM115.609375 165.207031L115.890625 162.652344 114.246094 160.675781 120.300781 161.324219zM101.664063 153.652344L102.125 151.121094 100.625 149.03125 106.617188 150.109375zM85.023438 134.902344L85.527344 132.382813 84.058594 130.269531 90.035156 131.449219zM85.023438 134.902344" />
  <path d="M 1498.828125 1277.50625 C 1498.828125 1249.264063 1448.28125 1226.373438 1381.210938 1226.373438 C 1314.140625 1226.373438 1259.804688 1249.264063 1259.804688 1277.50625" transform="matrix(.1 0 0 -.1 0 299.36)" fill="none" stroke-width="6.391" stroke="#000" stroke-miterlimit="10" />
  <path d="M 1691.210938 1271.1 C 1691.210938 1196.959375 1551.679688 1136.88125 1379.648438 1136.88125 C 1207.578125 1136.88125 1068.085938 1196.959375 1068.085938 1271.1" transform="matrix(.1 0 0 -.1 0 299.36)" fill="none" stroke-width="6.391" stroke="#000" stroke-miterlimit="10" />
  <path d="M 175.207031 113.265625 C 176.265625 113.019531 177.160156 112.472656 177.160156 111.269531 C 177.160156 110.464844 176.625 109.828125 174.738281 109.828125 L 171.917969 109.828125 L 171.851563 110.164063 C 172.675781 110.164063 172.886719 110.289063 172.695313 111.179688 L 171.746094 115.765625 C 171.558594 116.691406 171.371094 116.824219 170.523438 116.824219 L 170.453125 117.160156 L 173.667969 117.160156 C 175.417969 117.160156 176.804688 116.347656 176.804688 114.851563 C 176.804688 113.914063 176.078125 113.445313 175.207031 113.320313 Z M 173.289063 113.121094 L 173.867188 110.289063 C 174.101563 110.265625 174.203125 110.253906 174.425781 110.253906 C 175.675781 110.253906 176.054688 110.742188 176.054688 111.347656 C 176.054688 112.453125 175.476563 113.121094 173.9375 113.121094 Z M 173.199219 113.566406 L 173.859375 113.566406 C 174.796875 113.566406 175.652344 113.859375 175.652344 114.882813 C 175.652344 116.535156 174.257813 116.757813 173.242188 116.757813 C 172.964844 116.757813 172.820313 116.746094 172.5625 116.726563 L 173.199219 113.566406" />
</svg>